<svg id="Layer_1" data-name="Layer 1" xmlns="http://www.w3.org/2000/svg" viewBox="0 0 81.11 31.93"><defs><style>.cls-1{fill:#fff;}.cls-2{fill:#166d38;}</style></defs><title>logo-green-grey</title><path class="cls-1" d="M20.72,19.45h1.56v7.08h4.39v1.32h-6Z" transform="translate(-8 -6.77)"/><path class="cls-1" d="M27.15,23.65a4.31,4.31,0,0,1,4.53-4.32,4.32,4.32,0,1,1,0,8.64A4.31,4.31,0,0,1,27.15,23.65Zm7.48,0a3,3,0,1,0-3,3A2.86,2.86,0,0,0,34.63,23.65Z" transform="translate(-8 -6.77)"/><path class="cls-1" d="M43.18,25.9H39l-.82,2H36.55l3.78-8.4h1.53l3.79,8.4H44Zm-.51-1.22L41.08,21l-1.57,3.67Z" transform="translate(-8 -6.77)"/><path class="cls-1" d="M46.73,19.45H50.4c2.72,0,4.58,1.68,4.58,4.2s-1.86,4.2-4.58,4.2H46.73Zm3.59,7.08a2.89,2.89,0,1,0,0-5.76h-2v5.76Z" transform="translate(-8 -6.77)"/><path class="cls-1" d="M56.64,19.45H58.2v7.08h4.39v1.32h-6Z" transform="translate(-8 -6.77)"/><path class="cls-1" d="M70.12,26.54v1.31H63.83v-8.4H70v1.31H65.38v2.18h4.06v1.28H65.38v2.32Z" transform="translate(-8 -6.77)"/><path class="cls-1" d="M77.31,25.9h-4.2l-.82,2H70.68l3.78-8.4H76l3.79,8.4H78.15Zm-.52-1.22L75.21,21l-1.57,3.67Z" transform="translate(-8 -6.77)"/><path class="cls-1" d="M80.85,19.45h3.67c2.73,0,4.58,1.68,4.58,4.2s-1.85,4.2-4.58,4.2H80.85Zm3.6,7.08a2.89,2.89,0,1,0,0-5.76h-2v5.76Z" transform="translate(-8 -6.77)"/><path class="cls-2" d="M14.38,6.77h5.93L14.93,33.68H31.62l-1,5H8Z" transform="translate(-8 -6.77)"/><path class="cls-1" d="M31.82,35.32h.46V37.4h1.28v.38H31.82Z" transform="translate(-8 -6.77)"/><path class="cls-1" d="M33.7,36.55A1.33,1.33,0,1,1,35,37.82,1.26,1.26,0,0,1,33.7,36.55Zm2.19,0a.87.87,0,0,0-1.73,0,.87.87,0,1,0,1.73,0Z" transform="translate(-8 -6.77)"/><path class="cls-1" d="M38.39,37.21H37.16l-.24.57h-.47l1.1-2.46H38l1.11,2.46h-.47Zm-.15-.36-.46-1.07-.46,1.07Z" transform="translate(-8 -6.77)"/><path class="cls-1" d="M39.42,35.32H40.5a1.23,1.23,0,1,1,0,2.46H39.42Zm1.06,2.08a.85.85,0,1,0,0-1.69h-.6V37.4Z" transform="translate(-8 -6.77)"/><path class="cls-1" d="M45.54,37.78V36.15l-.81,1.35h-.2l-.81-1.33v1.61h-.43V35.32h.37l1,1.63,1-1.63H46v2.46Z" transform="translate(-8 -6.77)"/><path class="cls-1" d="M48.23,37.21H47l-.24.57h-.47l1.1-2.46h.45L49,37.78h-.48Zm-.15-.36-.47-1.07-.46,1.07Z" transform="translate(-8 -6.77)"/><path class="cls-1" d="M49.64,35.71h-.82v-.39h2.09v.39h-.82v2.07h-.45Z" transform="translate(-8 -6.77)"/><path class="cls-1" d="M51,36.55a1.33,1.33,0,0,1,2.29-.85L53,36a.87.87,0,1,0-.65,1.44.85.85,0,0,0,.65-.3l.3.29a1.29,1.29,0,0,1-1,.41A1.25,1.25,0,0,1,51,36.55Z" transform="translate(-8 -6.77)"/><path class="cls-1" d="M56,35.32v2.46h-.46V36.73H54.22v1.05h-.46V35.32h.46v1h1.27v-1Z" transform="translate(-8 -6.77)"/><path class="cls-1" d="M56.6,35.32h.46v2.46H56.6Z" transform="translate(-8 -6.77)"/><path class="cls-1" d="M59.91,35.32v2.46h-.38l-1.36-1.66v1.66h-.45V35.32h.38L59.45,37V35.32Z" transform="translate(-8 -6.77)"/><path class="cls-1" d="M62.24,36.52h.43v1a1.52,1.52,0,0,1-1,.32,1.27,1.27,0,1,1,1-2.13l-.28.28a.94.94,0,0,0-.68-.28.84.84,0,0,0-.89.86.85.85,0,0,0,.89.87,1,1,0,0,0,.5-.13Z" transform="translate(-8 -6.77)"/><path class="cls-1" d="M64.24,35.32h1.07a1.23,1.23,0,1,1,0,2.46H64.24Zm1.05,2.08a.85.85,0,1,0,0-1.69h-.6V37.4Z" transform="translate(-8 -6.77)"/><path class="cls-1" d="M67,36.55a1.32,1.32,0,1,1,1.32,1.27A1.26,1.26,0,0,1,67,36.55Zm2.18,0a.86.86,0,0,0-1.72,0,.86.86,0,1,0,1.72,0Z" transform="translate(-8 -6.77)"/><path class="cls-1" d="M72.27,35.32v2.46h-.38l-1.35-1.66v1.66h-.45V35.32h.37L71.82,37V35.32Z" transform="translate(-8 -6.77)"/><path class="cls-1" d="M74.77,37.4v.38H72.93V35.32h1.79v.39H73.38v.64h1.19v.37H73.38v.68Z" transform="translate(-8 -6.77)"/><path class="cls-1" d="M77.85,37.78l-.5-.72H76.7v.71h-.46V35.32h1c.65,0,1,.33,1,.88a.78.78,0,0,1-.52.77l.56.81Zm-.62-2.07H76.7v1h.53c.4,0,.61-.18.61-.49S77.63,35.71,77.23,35.71Z" transform="translate(-8 -6.77)"/><path class="cls-1" d="M78.81,35.32h.45v2.46h-.45Z" transform="translate(-8 -6.77)"/><path class="cls-1" d="M81.6,36.52H82v1a1.57,1.57,0,0,1-1,.32,1.27,1.27,0,1,1,0-2.53,1.3,1.3,0,0,1,1,.4l-.29.28a.93.93,0,0,0-.68-.28.84.84,0,0,0-.89.86.85.85,0,0,0,.89.87,1,1,0,0,0,.5-.13Z" transform="translate(-8 -6.77)"/><path class="cls-1" d="M84.82,35.32v2.46h-.46V36.73H83.09v1.05h-.46V35.32h.46v1h1.27v-1Z" transform="translate(-8 -6.77)"/><path class="cls-1" d="M86,35.71h-.81v-.39h2.08v.39h-.81v2.07H86Z" transform="translate(-8 -6.77)"/><path class="cls-1" d="M87.53,37.53a.27.27,0,0,1,.29-.27.26.26,0,0,1,.27.27.27.27,0,0,1-.27.28A.28.28,0,0,1,87.53,37.53Zm0-2.21h.52L88,37h-.35Z" transform="translate(-8 -6.77)"/></svg>