<svg id="Layer_1" data-name="Layer 1" xmlns="http://www.w3.org/2000/svg" viewBox="0 0 81.11 31.93"><defs><style>.cls-1{fill:#fff;}</style></defs><title>white-logo</title><path class="cls-1" d="M20.72,19.45h1.56v7.08h4.39v1.32h-6Zm6.43,4.2a4.31,4.31,0,0,1,4.53-4.32,4.32,4.32,0,1,1,0,8.64A4.31,4.31,0,0,1,27.15,23.65Zm7.48,0a3,3,0,1,0-3,3A2.86,2.86,0,0,0,34.63,23.65Zm8.55,2.25H39l-.82,2H36.55l3.78-8.4h1.53l3.79,8.4H44Zm-.51-1.22L41.08,21l-1.57,3.67Zm4.06-5.23H50.4c2.72,0,4.58,1.68,4.58,4.2s-1.86,4.2-4.58,4.2H46.73Zm3.59,7.08a2.89,2.89,0,1,0,0-5.76h-2v5.76Zm6.32-7.08H58.2v7.08h4.39v1.32h-6Zm13.48,7.09v1.31H63.83v-8.4H70v1.31H65.38v2.18h4.06v1.28H65.38v2.32Zm7.19-.64h-4.2l-.82,2H70.68l3.78-8.4H76l3.79,8.4H78.15Zm-.52-1.22L75.21,21l-1.57,3.67Zm4.06-5.23h3.67c2.73,0,4.58,1.68,4.58,4.2s-1.85,4.2-4.58,4.2H80.85Zm3.6,7.08a2.89,2.89,0,1,0,0-5.76h-2v5.76ZM14.38,6.77h5.93L14.93,33.68H31.62l-1,5H8Z" transform="translate(-8 -6.77)"/></svg>